<svg id="Capa_1" data-name="Capa 1" xmlns="http://www.w3.org/2000/svg" viewBox="0 0 473.81 357.99"><defs><style>.cls-1{fill:#1e201d;}</style></defs><title>mainnavi_contact2</title><path class="cls-1" d="M460.28,60a13.58,13.58,0,0,1,13.53,13.52V404.41a13.58,13.58,0,0,1-13.53,13.53H13.34A13.44,13.44,0,0,1,0,404.4V73.47A13.41,13.41,0,0,1,13.34,60H460.28ZM236.81,246.27l101.35-87.63L421,86.81H52.59l82.86,71.83Zm118.87-67.45L245.76,274.08a13.59,13.59,0,0,1-17.72.19L117.93,178.82,26.86,100v278l91.07-79.07,51.06-44a13.14,13.14,0,0,1,18.86,1.33A13.31,13.31,0,0,1,186.51,275l-51.06,44.19L52.59,390.86H421l-82.87-71.64L287.11,275a13.48,13.48,0,0,1-1.33-18.86,13.16,13.16,0,0,1,18.86-1.33l51.06,44L447,377.92V100Z" transform="translate(0 -59.95)"/></svg>