<svg id="Ebene_1" data-name="Ebene 1" xmlns="http://www.w3.org/2000/svg" viewBox="0 0 371.16 400.01"><defs><style>.cls-1{fill:#fff;}</style></defs><title>mainnavi_login</title><path class="cls-1" d="M364.57,288a94,94,0,1,0,93.95,93.95A94.06,94.06,0,0,0,364.57,288Zm0,173.42A79.47,79.47,0,1,1,444,381.92,79.56,79.56,0,0,1,364.57,461.39Z" transform="translate(-87.36 -75.86)"/><path d="M303.92,249.34a93,93,0,1,0-93.12,0c-71.18,20.3-123.44,85.92-123.44,163.52v16c0,5.52,4.48,10.5,10,10.5h320c5.52,0,10-5,10-10.5v-16c0-77.6-52.26-143.22-123.44-163.52ZM184.36,168.86a73,73,0,1,1,73,73,73.09,73.09,0,0,1-73-73Zm223,250.5h-300v-6.5c0-82.71,67.29-150,150-150s150,67.29,150,150Z" transform="translate(-87.36 -75.86)"/></svg>