<svg id="Capa_1" data-name="Capa 1" xmlns="http://www.w3.org/2000/svg" viewBox="0 0 469 469"><title>picto_gallery_zoom</title><path d="M455.5,0H13.5A13.44,13.44,0,0,0,0,13.5V225.4a13.5,13.5,0,0,0,27,0V27H442V442H242.4a13.5,13.5,0,1,0,0,27H455.5A13.44,13.44,0,0,0,469,455.5V13.5A13.44,13.44,0,0,0,455.5,0Z" transform="translate(0 0)"/><path d="M175.6,279.9H13.5A13.44,13.44,0,0,0,0,293.4V455.5A13.44,13.44,0,0,0,13.5,469H175.6a13.44,13.44,0,0,0,13.5-13.5V293.4A13.57,13.57,0,0,0,175.6,279.9ZM162.1,442H27V306.9H162.1Z" transform="translate(0 0)"/><path d="M360.4,127.7v71.5a13.5,13.5,0,0,0,27,0V95.1a13.44,13.44,0,0,0-13.5-13.5H269.8a13.5,13.5,0,0,0,0,27h71.5L212.5,237.4a13.55,13.55,0,0,0,9.5,23.1,13.17,13.17,0,0,0,9.5-4Z" transform="translate(0 0)"/></svg>