<svg id="Capa_1" data-name="Capa 1" xmlns="http://www.w3.org/2000/svg" viewBox="0 0 512 511.79"><title>picto_suffix_pdf</title><path d="M403.21.1H120V60.89H0V240.14H120V511.89H512v-403ZM412,51.32l48.79,48.78H412ZM30,90.89H270V210.14H30Zm120,391V240.15H300V60.9H150V30.11H382v100H482V481.89H150Z" transform="translate(0 -0.1)"/><path d="M196,348H435v30H196Z" transform="translate(0 -0.1)"/><path d="M196,288H435v30H196Z" transform="translate(0 -0.1)"/><path d="M196,408H435v30H196Z" transform="translate(0 -0.1)"/><path d="M71.08,124h30.18c16,0,21.48,11.73,21.48,20,0,14.1-9.51,20.83-23,20.83H89.12v17.71h-18Zm18,26.9h7c4.6,0,9.6-.25,9.6-6.24,0-5.33-4.1-5.65-8.53-5.65h-8Z" transform="translate(0 -0.1)"/><path d="M128.81,124h29.6c19.44,0,26.41,14.43,26.41,29.19,0,18-9.51,29.36-29.93,29.36H128.81Zm18,43.54h7.05c11.16,0,12.88-9.1,12.88-14.59,0-3.69-1.07-13.94-14.19-13.94h-5.74Z" transform="translate(0 -0.1)"/><path d="M192.61,124h45.26v15H210.65v7.29H234v13.94H210.65v22.31h-18Z" transform="translate(0 -0.1)"/></svg>