<svg id="Capa_1" data-name="Capa 1" xmlns="http://www.w3.org/2000/svg" viewBox="0 0 612 612.01"><title>mainnavi_search</title><g id="_4" data-name="4"><path d="M606.21,578.71l-158-155.48c41.38-45,66.8-104.41,66.8-169.84C515,113.44,399.7,0,257.49,0S0,113.44,0,253.39s115.27,253.4,257.48,253.4A259,259,0,0,0,419.56,450.2L578.18,606.3a20,20,0,0,0,28,0A19.29,19.29,0,0,0,606.21,578.71ZM257.49,467.8c-120.32,0-217.87-96-217.87-214.41S137.17,39,257.49,39s217.87,96,217.87,214.4S377.82,467.8,257.49,467.8Z" transform="translate(-0.01 0)"/></g></svg>